<svg width="56" height="56" viewBox="0 0 56 56" fill="none" xmlns="http://www.w3.org/2000/svg">
<rect width="56" height="56" rx="16" fill="#BCEBE9"/>
<path d="M17.5 19L14 30.5L17.5 31L20.5 23L22 27.5C23.2 31.5 21.5 38.5 20.5 41.5H36C35.6 37.5 35.1667 36.1667 35 36C32.2 31.2 34.5 25.3333 36 23L39 31L42 30L39.5 22C38.5 17.5 36 16 33.5 16C31 16 30.3333 15 30 14H25.5C25.5 16 23.1667 16.1667 22 16C19.2 16 17.8333 18 17.5 19Z" fill="white"/>
<path d="M28 14.5L27.5 16M14 30.5L17.5 19C17.8333 18 19.2 16 22 16C23.1667 16.1667 25.5 16 25.5 14H30C30.3333 15 31 16 33.5 16C36 16 38.5 17.5 39.5 22L42 30L39 31L36 23C34.5 25.3333 32.2 31.2 35 36C35.1667 36.1667 35.6 37.5 36 41.5H20.5C21.5 38.5 23.2 31.5 22 27.5L20.5 23L17.5 31L14 30.5Z" stroke="#1EBCB4"/>
<path d="M27.5 17L27 19" stroke="#1EBCB4"/>
<path d="M26.5 20.5V22" stroke="#1EBCB4"/>
<path d="M27 23.5L27.5 25.5" stroke="#1EBCB4"/>
<path d="M27.5 27L28.5 28.5" stroke="#1EBCB4"/>
<path d="M29 30V32" stroke="#1EBCB4"/>
<path d="M29.5 33.5L29 35.5" stroke="#1EBCB4"/>
<path d="M29 36.5V39" stroke="#1EBCB4"/>
<path d="M28.5 40L28 41.5" stroke="#1EBCB4"/>
<path d="M19 33.4998H14V38H19C20.2 38.8 21.5 39 22 39H25.5C27.1 39 27.1667 37.3333 27 36.5C27 34.9 26 34.5 25.5 34.5H22.5L24.5 33.9998C24.1 31.5998 20.6667 32.6665 19 33.4998Z" fill="white" stroke="#1EBCB4"/>
</svg>
