<svg width="56" height="56" viewBox="0 0 56 56" fill="none" xmlns="http://www.w3.org/2000/svg">
<rect width="56" height="56" rx="16" fill="#F5E2B3"/>
<path d="M28.1504 13.4395C20.5783 13.4395 14.4395 19.5783 14.4395 27.1504V40.8027C14.4395 41.7736 15.2264 42.5605 16.1973 42.5605H40.1035C41.0744 42.5605 41.8613 41.7736 41.8613 40.8027V27.1504C41.8613 19.5783 35.7225 13.4395 28.1504 13.4395ZM28.1504 35.2949C23.6521 35.2949 20.0059 31.6486 20.0059 27.1504C20.0059 24.9016 20.9176 22.8648 22.3912 21.3912C23.8648 19.9176 25.9016 19.0059 28.1504 19.0059C30.3992 19.0059 32.4359 19.9176 33.9096 21.3912C35.3832 22.8648 36.2949 24.9016 36.2949 27.1504C36.2949 29.3992 35.3832 31.4359 33.9096 32.9096C32.4359 34.3832 30.3992 35.2949 28.1504 35.2949Z" fill="white"/>
<path d="M41.8613 27.1504V40.8027C41.8613 41.7736 41.0744 42.5605 40.1035 42.5605H38.3457C39.3166 42.5605 40.1035 41.7736 40.1035 40.8027V27.1504C40.1035 19.8742 34.4352 13.9211 27.2732 13.467C27.5633 13.4488 27.8557 13.4395 28.1504 13.4395C35.7225 13.4395 41.8613 19.5783 41.8613 27.1504Z" fill="#F5E2B3"/>
<path d="M35.1523 20.1484C33.3605 18.3566 30.885 17.248 28.1504 17.248C25.4158 17.248 22.9402 18.3566 21.1484 20.1484C19.3566 21.9402 18.248 24.4158 18.248 27.1504C18.248 32.6195 22.6813 37.0527 28.1504 37.0527C30.885 37.0527 33.3605 35.9441 35.1523 34.1523C36.9441 32.3605 38.0527 29.885 38.0527 27.1504C38.0527 24.4158 36.9441 21.9402 35.1523 20.1484ZM33.9096 32.9096C32.4359 34.3832 30.3992 35.2949 28.1504 35.2949C23.6521 35.2949 20.0059 31.6486 20.0059 27.1504C20.0059 24.9016 20.9176 22.8648 22.3912 21.3912C23.8648 19.9176 25.9016 19.0059 28.1504 19.0059C30.3992 19.0059 32.4359 19.9176 33.9096 21.3912C35.3832 22.8648 36.2949 24.9016 36.2949 27.1504C36.2949 29.3992 35.3832 31.4359 33.9096 32.9096Z" fill="#F5E2B3"/>
<path d="M21.5586 39.9238H34.7422C35.0658 39.9238 35.3281 40.1862 35.3281 40.5098V42.5605H20.9727V40.5098C20.9727 40.1862 21.235 39.9238 21.5586 39.9238Z" fill="#736572"/>
<path d="M18.3945 38.6055C19.1226 38.6055 19.7129 38.0152 19.7129 37.2871C19.7129 36.559 19.1226 35.9688 18.3945 35.9688C17.6664 35.9688 17.0762 36.559 17.0762 37.2871C17.0762 38.0152 17.6664 38.6055 18.3945 38.6055Z" fill="#FF8D95"/>
<path d="M30.377 27.3262H25.9238C25.4384 27.3262 25.0449 27.7197 25.0449 28.2051C25.0449 28.6905 25.4384 29.084 25.9238 29.084H30.377C30.8623 29.084 31.2559 28.6905 31.2559 28.2051C31.2559 27.7197 30.8623 27.3262 30.377 27.3262Z" fill="#CBB0F2"/>
<path d="M31.2559 28.2051C31.2559 28.6902 30.8621 29.084 30.377 29.084H28.6191C29.1043 29.084 29.498 28.6902 29.498 28.2051C29.498 27.9625 29.3996 27.7428 29.2402 27.584C29.0814 27.4246 28.8617 27.3262 28.6191 27.3262H30.377C30.6195 27.3262 30.8393 27.4246 30.998 27.584C31.1574 27.7428 31.2559 27.9625 31.2559 28.2051Z" fill="#B696EF"/>
<path d="M37.9062 38.6055C37.1782 38.6055 36.5879 38.0152 36.5879 37.2871C36.5879 36.559 37.1782 35.9688 37.9062 35.9688C38.6343 35.9688 39.2246 36.559 39.2246 37.2871C39.2246 38.0152 38.6343 38.6055 37.9062 38.6055Z" fill="#FF8D95"/>
<path d="M32.75 30.8418H23.5508L21.793 39.9238H34.5078L32.75 30.8418Z" fill="#FCF1F2"/>
<path d="M34.5078 39.9238H21.793L22.3033 37.2871H33.9975L34.5078 39.9238Z" fill="#F4E5E0"/>
<path d="M32.8086 30.8418H23.4922C23.1686 30.8418 22.9062 30.5795 22.9062 30.2559V29.6699C22.9062 29.3463 23.1686 29.084 23.4922 29.084H32.8086C33.1322 29.084 33.3945 29.3463 33.3945 29.6699V30.2559C33.3945 30.5795 33.1322 30.8418 32.8086 30.8418Z" fill="#E6D6D1"/>
<path d="M33.3945 29.6699V30.2559C33.3945 30.5793 33.132 30.8418 32.8086 30.8418H31.0508C31.3742 30.8418 31.6367 30.5793 31.6367 30.2559V29.6699C31.6367 29.3465 31.3742 29.084 31.0508 29.084H32.8086C33.132 29.084 33.3945 29.3465 33.3945 29.6699Z" fill="#D3C6C3"/>
<path d="M35.3281 40.5098V42.5605H33.5703V40.5098C33.5703 40.1863 33.3078 39.9238 32.9844 39.9238H34.7422C35.0656 39.9238 35.3281 40.1863 35.3281 40.5098Z" fill="#615260"/>
<path d="M34.5078 39.9238H32.75L30.9922 30.8418H32.75L34.5078 39.9238Z" fill="#F4E5E0"/>
<path d="M34.5078 39.9238H32.75L32.2396 37.2871H33.9975L34.5078 39.9238Z" fill="#E6D6D1"/>
<path d="M38.1563 17.1445C35.4836 14.4719 31.9301 13 28.1504 13C24.3707 13 20.8172 14.4719 18.1445 17.1445C15.4718 19.8171 14 23.3707 14 27.1504C14 27.3931 14.1968 27.5898 14.4395 27.5898C14.6821 27.5898 14.8789 27.3931 14.8789 27.1504C14.8789 19.8324 20.8324 13.8789 28.1504 13.8789C35.4683 13.8789 41.4219 19.8324 41.4219 27.1504V40.8027C41.4219 41.5296 40.8305 42.1211 40.1035 42.1211H35.7676V40.5098C35.7676 39.9885 35.3763 39.5577 34.8721 39.4935L34.1179 35.5966C36.8608 33.6558 38.4922 30.516 38.4922 27.1504C38.4922 21.4479 33.8529 16.8086 28.1504 16.8086C22.4479 16.8086 17.8086 21.4479 17.8086 27.1504C17.8086 30.5166 19.4398 33.6558 22.1829 35.5966L21.4287 39.4935C20.9246 39.5577 20.5332 39.9885 20.5332 40.5098V42.1211H16.1973C15.4703 42.1211 14.8789 41.5296 14.8789 40.8027V29.2012C14.8789 28.9584 14.6821 28.7617 14.4395 28.7617C14.1968 28.7617 14 28.9584 14 29.2012V40.8027C14 42.0143 14.9857 43 16.1973 43H40.1035C41.3151 43 42.3008 42.0143 42.3008 40.8027V27.1504C42.3008 23.3707 40.8289 19.8172 38.1563 17.1445ZM20.4453 27.1504C20.4453 22.9018 23.9018 19.4453 28.1504 19.4453C32.399 19.4453 35.8555 22.9018 35.8555 27.1504C35.8555 29.2373 35.022 31.204 33.5474 32.6491L33.2619 31.1742C33.6003 31.0064 33.834 30.6584 33.834 30.2559V29.6699C33.834 29.1046 33.374 28.6445 32.8086 28.6445H31.6197C31.6685 28.507 31.6953 28.3591 31.6953 28.2051C31.6953 27.4782 31.1039 26.8867 30.377 26.8867H25.9238C25.1969 26.8867 24.6055 27.4782 24.6055 28.2051C24.6055 28.3591 24.6323 28.507 24.6811 28.6445H23.4922C22.9268 28.6445 22.4668 29.1046 22.4668 29.6699V30.2559C22.4668 30.6584 22.7005 31.0065 23.0388 31.1742L22.7534 32.6493C21.279 31.204 20.4453 29.2356 20.4453 27.1504ZM23.4922 30.4023C23.4114 30.4023 23.3457 30.3367 23.3457 30.2559V29.6699C23.3457 29.5891 23.4114 29.5234 23.4922 29.5234H32.8086C32.8893 29.5234 32.9551 29.5891 32.9551 29.6699V30.2559C32.9551 30.3367 32.8893 30.4023 32.8086 30.4023H23.4922ZM25.4844 28.2051C25.4844 27.9627 25.6815 27.7656 25.9238 27.7656H30.377C30.6193 27.7656 30.8164 27.9627 30.8164 28.2051C30.8164 28.4474 30.6193 28.6445 30.377 28.6445H25.9238C25.6815 28.6445 25.4844 28.4474 25.4844 28.2051ZM23.9134 31.2812H32.3875L33.4648 36.8477H22.836L23.9134 31.2812ZM18.6875 27.1504C18.6875 21.9325 22.9326 17.6875 28.1504 17.6875C33.3682 17.6875 37.6133 21.9325 37.6133 27.1504C37.6133 30.0958 36.248 32.8528 33.933 34.6413L33.7435 33.6621C35.6472 32.0267 36.7344 29.6668 36.7344 27.1503C36.7344 22.4172 32.8836 18.5664 28.1504 18.5664C23.4172 18.5664 19.5664 22.4172 19.5664 27.1504C19.5664 29.6646 20.6543 32.0264 22.5574 33.6617L22.3678 34.6413C20.0526 32.8527 18.6875 30.0963 18.6875 27.1504ZM21.4121 40.5098C21.4121 40.429 21.4779 40.3633 21.5586 40.3633H30.7121C30.9547 40.3633 31.1515 40.1666 31.1515 39.9238C31.1515 39.6811 30.9547 39.4844 30.7121 39.4844H22.3256L22.6658 37.7266H33.6349L33.9751 39.4844H32.7628C32.5201 39.4844 32.3233 39.6811 32.3233 39.9238C32.3233 40.1666 32.5201 40.3633 32.7628 40.3633H34.7422C34.8229 40.3633 34.8887 40.429 34.8887 40.5098V42.1211H21.4121V40.5098Z" fill="#FFB201"/>
<path d="M20.1523 37.2871C20.1523 36.3179 19.3638 35.5293 18.3945 35.5293C17.4253 35.5293 16.6367 36.3179 16.6367 37.2871C16.6367 38.2564 17.4253 39.0449 18.3945 39.0449C19.3638 39.0449 20.1523 38.2564 20.1523 37.2871ZM17.5156 37.2871C17.5156 36.8025 17.9099 36.4082 18.3945 36.4082C18.8792 36.4082 19.2734 36.8025 19.2734 37.2871C19.2734 37.7717 18.8792 38.166 18.3945 38.166C17.9099 38.166 17.5156 37.7717 17.5156 37.2871Z" fill="#FFB201"/>
<path d="M36.1484 37.2871C36.1484 38.2564 36.937 39.0449 37.9062 39.0449C38.8755 39.0449 39.6641 38.2564 39.6641 37.2871C39.6641 36.3179 38.8755 35.5293 37.9062 35.5293C36.937 35.5293 36.1484 36.3179 36.1484 37.2871ZM37.9062 36.4082C38.3909 36.4082 38.7852 36.8025 38.7852 37.2871C38.7852 37.7717 38.3909 38.166 37.9062 38.166C37.4216 38.166 37.0273 37.7717 37.0273 37.2871C37.0273 36.8025 37.4216 36.4082 37.9062 36.4082Z" fill="#FFB201"/>
</svg>
