<svg width="56" height="56" viewBox="0 0 56 56" fill="none" xmlns="http://www.w3.org/2000/svg">
<rect width="56" height="56" rx="16" fill="#F5E2B3"/>
<path d="M37.4204 12.981H17.2552V27.5412H23.1544H31.5214H37.4206V12.981H37.4204ZM36.2089 26.419C36.1651 26.4628 36.1044 26.4878 36.0426 26.4878H18.633C18.5712 26.4878 18.5105 26.4628 18.4667 26.419C18.423 26.3753 18.3979 26.3146 18.3979 26.2528V14.2694C18.3979 14.2075 18.423 14.147 18.4667 14.1031C18.5105 14.0594 18.5712 14.0343 18.633 14.0343H36.0426C36.1044 14.0343 36.165 14.0594 36.2089 14.1031C36.2528 14.1468 36.2777 14.2073 36.2777 14.2694V26.2528C36.2777 26.3146 36.2526 26.3751 36.2089 26.419Z" fill="#FCD4B9"/>
<path d="M35.8073 14.5044H18.868V26.0175H35.8073V14.5044ZM32.8262 22.0439C32.2343 22.4803 31.3958 22.8301 30.3908 23.0771C29.3859 23.3232 28.2147 23.4637 26.9629 23.4637C25.7065 23.4637 24.5312 23.3221 23.5238 23.0744C22.5163 22.8258 21.6769 22.4737 21.0865 22.0343C21.004 21.9726 20.9712 21.8654 21.0053 21.7683L22.7549 16.7621C22.7796 16.6916 22.8368 16.6365 22.9082 16.6149C22.9796 16.593 23.0577 16.6066 23.1176 16.6512C23.4626 16.9097 24.0038 17.1434 24.6677 17.3063C25.3318 17.4699 26.1187 17.5653 26.9613 17.5651C27.8009 17.5651 28.5851 17.4705 29.2477 17.308C29.9101 17.1462 30.4507 16.9142 30.7974 16.6569C30.8575 16.6126 30.9351 16.5994 31.0064 16.6213C31.0777 16.6433 31.1344 16.698 31.1591 16.7685L32.9086 21.7775C32.9423 21.8744 32.9091 21.9826 32.8262 22.0439Z" fill="#B9E1EB"/>
<path d="M30.279 22.6205C31.1581 22.4056 31.892 22.1057 32.4056 21.7641L30.8136 17.206C30.4217 17.4371 29.9289 17.6246 29.3593 17.7647C28.6548 17.9372 27.836 18.0352 26.9612 18.0354C26.0831 18.0354 25.2613 17.9366 24.5551 17.7628C23.9845 17.6218 23.4914 17.4331 23.0997 17.2007L21.5076 21.7558C22.0198 22.0995 22.7546 22.4014 23.6364 22.6178C24.6017 22.8555 25.7421 22.9937 26.9629 22.9935C28.1793 22.9937 29.3159 22.8565 30.279 22.6205ZM22.5823 19.6399C22.6579 19.5343 22.8047 19.51 22.9103 19.5856C23.275 19.8476 23.8458 20.0842 24.5455 20.2488C25.2452 20.4141 26.0741 20.5106 26.9614 20.5106C27.8454 20.5106 28.6714 20.4148 29.3696 20.2506C30.0677 20.0872 30.6383 19.8521 31.0045 19.5913C31.1105 19.516 31.2571 19.5411 31.3323 19.6471C31.4075 19.753 31.3825 19.8996 31.2765 19.9749C30.8341 20.2876 30.216 20.534 29.4773 20.7083C28.7387 20.8819 27.8795 20.9807 26.9614 20.9807C26.04 20.9805 25.1778 20.8812 24.4373 20.7064C23.6967 20.5307 23.0778 20.2829 22.6366 19.9679C22.531 19.8923 22.5067 19.7455 22.5823 19.6399ZM24.167 22.1935C23.3474 21.9994 22.6635 21.7249 22.1779 21.3783C22.0724 21.3027 22.0481 21.1558 22.1237 21.0503C22.1992 20.9447 22.3461 20.9204 22.4516 20.996C22.8605 21.2897 23.4967 21.5528 24.2752 21.736C25.0539 21.92 25.9755 22.0273 26.9619 22.0271C27.9448 22.0271 28.863 21.9208 29.64 21.7379C30.4168 21.556 31.0522 21.2946 31.463 21.0024C31.5689 20.9272 31.7155 20.9522 31.7908 21.0582C31.866 21.1641 31.8409 21.3108 31.735 21.386C31.2483 21.73 30.5651 22.0029 29.7476 22.1958C28.9302 22.3879 27.9787 22.4974 26.9619 22.4974C25.9414 22.4972 24.9866 22.3871 24.167 22.1935Z" fill="white"/>
<path d="M31.2861 28.0112H23.3894V30.3873H31.2861V28.0112Z" fill="white"/>
<path d="M16.5084 30.8576V36.7194H38.4117V33.4259C38.3802 33.3865 38.3604 33.3375 38.3595 33.2832C38.3587 33.2265 38.3787 33.1749 38.4117 33.1338V30.8574H16.5084V30.8576ZM19.2441 35.9198C19.0747 36.0897 18.8381 36.1954 18.5791 36.1954C18.3201 36.1954 18.0835 36.0897 17.914 35.9198C17.7442 35.7504 17.6385 35.5138 17.6386 35.255C17.6385 34.996 17.7442 34.7594 17.914 34.5899C18.0835 34.4201 18.3201 34.3143 18.5791 34.3145C18.8381 34.3145 19.0747 34.4201 19.2441 34.5899C19.414 34.7594 19.5197 34.996 19.5195 35.255C19.5197 35.5138 19.414 35.7504 19.2441 35.9198ZM19.2441 33.271C19.0747 33.4408 18.8381 33.5466 18.5791 33.5464C18.3201 33.5464 18.0835 33.4408 17.914 33.271C17.7442 33.1015 17.6385 32.865 17.6386 32.606C17.6385 32.3471 17.7442 32.1104 17.914 31.9411C18.0835 31.7713 18.3201 31.6655 18.5791 31.6655C18.8381 31.6655 19.0747 31.7713 19.2441 31.9411C19.414 32.1106 19.5197 32.3471 19.5195 32.606C19.5197 32.865 19.414 33.1015 19.2441 33.271ZM22.2745 35.9198C22.105 36.0897 21.8684 36.1954 21.6094 36.1954C21.3504 36.1954 21.1139 36.0897 20.9444 35.9198C20.7746 35.7504 20.6688 35.5138 20.669 35.255C20.6688 34.996 20.7746 34.7594 20.9444 34.5899C21.1139 34.4201 21.3504 34.3143 21.6094 34.3145C21.8684 34.3145 22.105 34.4201 22.2745 34.5899C22.4443 34.7594 22.5501 34.996 22.5499 35.255C22.5501 35.5138 22.4443 35.7504 22.2745 35.9198ZM22.2745 33.271C22.105 33.4408 21.8684 33.5466 21.6094 33.5464C21.3504 33.5464 21.1139 33.4408 20.9444 33.271C20.7746 33.1015 20.6688 32.865 20.669 32.606C20.669 32.3471 20.7746 32.1104 20.9444 31.9411C21.1139 31.7713 21.3504 31.6655 21.6094 31.6655C21.8684 31.6655 22.105 31.7713 22.2745 31.9411C22.4443 32.1106 22.5501 32.3471 22.5499 32.606C22.5501 32.865 22.4443 33.1015 22.2745 33.271ZM37.5133 35.631C37.5133 35.6929 37.4882 35.7536 37.4445 35.7973C37.4008 35.841 37.3401 35.8661 37.2782 35.8661H23.679C23.6172 35.8661 23.5565 35.841 23.5127 35.7973C23.469 35.7536 23.4439 35.693 23.4439 35.631V31.9006C23.4439 31.8388 23.469 31.7781 23.5127 31.7343C23.5565 31.6906 23.617 31.6655 23.679 31.6655H37.2782C37.3401 31.6655 37.4006 31.6906 37.4445 31.7343C37.4882 31.7781 37.5133 31.8388 37.5133 31.9006V35.631Z" fill="#EF7981"/>
<path d="M23.9947 42.0874C24.0341 42.0793 24.0779 42.0702 24.1269 42.0599C24.345 42.0141 24.6541 41.9479 25.017 41.8663C25.7427 41.7032 26.6843 41.4783 27.5429 41.2329C28.115 41.0695 28.6509 40.8964 29.056 40.7296C29.2871 40.6348 29.4758 40.5409 29.5972 40.46C29.6618 40.4174 29.7063 40.3782 29.7267 40.3541C29.7284 40.352 29.7289 40.3511 29.7303 40.3494C29.7282 40.346 29.7261 40.3426 29.7227 40.3381C29.7046 40.3132 29.6645 40.274 29.6036 40.2316C29.4818 40.1454 29.2816 40.0474 29.0337 39.9532C28.5367 39.7628 27.8475 39.5801 27.1365 39.4222C25.8419 39.1339 24.4715 38.9234 23.9827 38.8516C24.1014 39.4082 24.1448 39.9513 24.1448 40.4482C24.1448 41.0953 24.072 41.6649 23.9947 42.0874Z" fill="white"/>
<path d="M23.5195 42.0709C23.5342 41.9941 23.5487 41.9097 23.5629 41.8219L23.4724 38.7321C23.4094 38.4816 23.3299 38.2302 23.2298 37.9815C23.2275 37.9761 23.2268 37.9704 23.2249 37.9647C23.1815 37.9297 23.1367 37.8984 23.0895 37.8718C22.8633 37.7436 22.5908 37.7099 22.3955 37.7105C22.3386 37.7105 22.289 37.7131 22.249 37.7165C21.6549 38.7065 21.463 39.645 21.4624 40.4567C21.4622 41.2107 21.6294 41.8552 21.7994 42.3135C21.9165 42.63 22.0347 42.8571 22.098 42.9696C22.1112 42.9723 22.1244 42.9747 22.1403 42.9774C22.2258 42.9919 22.3472 43.0066 22.4831 43.0066C22.6358 43.0066 22.8062 42.9877 22.9649 42.9338C23.1184 42.8816 23.2596 42.7987 23.3802 42.6675C23.3883 42.6394 23.3996 42.5991 23.4134 42.5465C23.442 42.4358 23.4809 42.2737 23.5195 42.0709Z" fill="white"/>
<path d="M23.6748 40.4484C23.6748 39.9128 23.6211 39.3249 23.4724 38.7324L23.5629 41.8221C23.6236 41.4451 23.6748 40.9729 23.6748 40.4484Z" fill="white"/>
<path d="M18.9184 41.8612L19.0111 38.6953C18.8577 39.3012 18.8021 39.9023 18.8023 40.4497C18.8019 40.9896 18.8556 41.4761 18.9184 41.8612Z" fill="white"/>
<path d="M18.5791 32.1357C18.4484 32.1357 18.3325 32.188 18.2466 32.2735C18.161 32.3595 18.109 32.4754 18.1088 32.6061C18.109 32.7367 18.161 32.8528 18.2464 32.9386C18.3321 33.0241 18.4483 33.0762 18.5789 33.0764C18.7095 33.0764 18.8256 33.0241 18.9114 32.9386C18.9968 32.8528 19.049 32.7367 19.049 32.6061C19.049 32.4756 18.9968 32.3595 18.9112 32.2735C18.8258 32.1881 18.7097 32.1359 18.5791 32.1357Z" fill="white"/>
<path d="M18.5791 34.7847C18.4484 34.7847 18.3323 34.8369 18.2466 34.9223C18.1612 35.0082 18.1089 35.1242 18.1089 35.2548C18.1089 35.3852 18.1612 35.5013 18.2467 35.5873C18.3325 35.6729 18.4486 35.7249 18.5793 35.7251C18.7099 35.7251 18.8258 35.6729 18.9118 35.5873C18.9974 35.5013 19.0494 35.3854 19.0496 35.2548C19.0494 35.1242 18.9974 35.008 18.912 34.9223C18.8258 34.8371 18.7097 34.7849 18.5791 34.7847Z" fill="white"/>
<path d="M21.6094 32.1357C21.4788 32.1357 21.3629 32.188 21.2769 32.2735C21.1913 32.3595 21.1393 32.4754 21.1391 32.6061C21.1393 32.7367 21.1913 32.8528 21.2769 32.9386C21.3627 33.0241 21.4788 33.0762 21.6094 33.0764C21.7401 33.0764 21.8562 33.0241 21.942 32.9386C22.0273 32.8528 22.0796 32.7367 22.0798 32.6061C22.0796 32.4756 22.0275 32.3595 21.942 32.2735C21.8562 32.1881 21.7401 32.1359 21.6094 32.1357Z" fill="white"/>
<path d="M21.6094 34.7847C21.4788 34.7847 21.3627 34.8369 21.2769 34.9223C21.1915 35.0082 21.1393 35.1242 21.1391 35.2548C21.1391 35.3852 21.1913 35.5013 21.2769 35.5873C21.3627 35.6729 21.4788 35.7249 21.6094 35.7251C21.7401 35.7251 21.856 35.6729 21.942 35.5873C22.0275 35.5013 22.0796 35.3854 22.0798 35.2548C22.0796 35.1242 22.0275 35.008 21.942 34.9223C21.8562 34.8371 21.7401 34.7849 21.6094 34.7847Z" fill="white"/>
<path d="M37.043 32.1357H23.914V35.3961H37.043V32.1357Z" fill="white"/>
<path d="M36.2089 26.4189C36.2526 26.3752 36.2777 26.3145 36.2777 26.2527V14.2692C36.2777 14.2074 36.2526 14.1469 36.2089 14.103C36.1651 14.0591 36.1044 14.0342 36.0426 14.0342H18.633C18.5712 14.0342 18.5105 14.0593 18.4667 14.103C18.423 14.1467 18.3979 14.2072 18.3979 14.2692V26.2527C18.3979 26.3145 18.423 26.375 18.4667 26.4189C18.5105 26.4626 18.5712 26.4877 18.633 26.4877H36.0426C36.1044 26.4877 36.1649 26.4626 36.2089 26.4189ZM35.8073 26.0176H18.868V14.5043H35.8073V26.0176Z" fill="#45282D"/>
<path d="M21.0867 22.0339C21.6771 22.4733 22.5167 22.8254 23.524 23.074C24.5314 23.3217 25.7067 23.4633 26.963 23.4633C28.2147 23.4633 29.386 23.3228 30.3909 23.0766C31.396 22.8297 32.2345 22.4799 32.8264 22.0435C32.9091 21.9822 32.9425 21.874 32.9086 21.7769L31.1591 16.7679C31.1344 16.6974 31.0777 16.6427 31.0064 16.6207C30.935 16.5986 30.8573 16.6118 30.7974 16.6563C30.4507 16.9136 29.9101 17.1458 29.2477 17.3074C28.5851 17.4699 27.8009 17.5647 26.9613 17.5645C26.1187 17.5645 25.3318 17.4691 24.6677 17.3057C24.0038 17.143 23.4626 16.9093 23.1176 16.6506C23.0579 16.606 22.9796 16.5924 22.9082 16.6143C22.8367 16.6359 22.7796 16.691 22.7549 16.7615L21.0053 21.7677C20.9713 21.865 21.0041 21.9724 21.0867 22.0339ZM23.0997 17.2003C23.4912 17.4327 23.9845 17.6214 24.5551 17.7624C25.2613 17.9362 26.0831 18.035 26.9612 18.035C27.836 18.035 28.655 17.937 29.3593 17.7643C29.9287 17.6242 30.4217 17.4367 30.8136 17.2056L32.4056 21.7637C31.892 22.1053 31.1581 22.4052 30.279 22.6201C29.3159 22.8563 28.1793 22.9933 26.963 22.9933C25.7423 22.9933 24.6017 22.8553 23.6366 22.6176C22.7547 22.4012 22.02 22.0991 21.5078 21.7556L23.0997 17.2003Z" fill="#45282D"/>
<path d="M26.9619 22.4968C27.9787 22.4968 28.9303 22.3873 29.7476 22.1952C30.5651 22.0024 31.2483 21.7296 31.735 21.3854C31.8409 21.3102 31.8658 21.1636 31.7908 21.0576C31.7156 20.9517 31.5689 20.9268 31.463 21.0018C31.0522 21.294 30.4166 21.5555 29.64 21.7374C28.863 21.9202 27.9448 22.0265 26.9619 22.0265C25.9755 22.0265 25.0541 21.9195 24.2752 21.7355C23.4967 21.5525 22.8605 21.2893 22.4517 20.9956C22.3461 20.92 22.1993 20.9443 22.1237 21.0499C22.0481 21.1555 22.0724 21.3023 22.178 21.3779C22.6635 21.7246 23.3474 21.999 24.167 22.1932C24.9866 22.3868 25.9414 22.4968 26.9619 22.4968Z" fill="#45282D"/>
<path d="M22.6366 19.9677C23.0781 20.2827 23.6967 20.5306 24.4373 20.7063C25.1778 20.881 26.04 20.9806 26.9614 20.9806C27.8794 20.9804 28.7386 20.8818 29.4773 20.7082C30.216 20.5338 30.8341 20.2874 31.2765 19.9747C31.3825 19.8995 31.4074 19.7529 31.3323 19.6469C31.2571 19.541 31.1105 19.5161 31.0045 19.5911C30.6383 19.852 30.0677 20.0869 29.3697 20.2505C28.6715 20.4147 27.8454 20.5104 26.9614 20.5104C26.0741 20.5104 25.2453 20.4141 24.5455 20.2486C23.8458 20.0841 23.275 19.8475 22.9103 19.5855C22.8047 19.5099 22.6579 19.5342 22.5823 19.6398C22.5067 19.7453 22.531 19.8922 22.6366 19.9677Z" fill="#45282D"/>
<path d="M41.672 32.9484C41.2613 32.7712 40.8173 32.6691 40.383 32.6687H40.3825H40.3821H40.3802C40.0221 32.6696 39.7052 32.7722 39.413 32.8644C39.2275 32.9237 39.052 32.9788 38.8822 33.0122V30.6225C38.8822 30.5607 38.8571 30.5 38.8134 30.4563C38.7697 30.4125 38.709 30.3875 38.6471 30.3875H31.7565V28.0114H37.6556C37.7174 28.0114 37.7781 27.9861 37.8219 27.9426C37.8656 27.8989 37.8907 27.8382 37.8907 27.7763V12.7458C37.8907 12.6838 37.8656 12.6233 37.8219 12.5795C37.7781 12.5358 37.7174 12.5107 37.6556 12.5107H17.02C16.958 12.5107 16.8975 12.5358 16.8537 12.5795C16.81 12.6233 16.7849 12.684 16.7849 12.7458V27.7762C16.7849 27.838 16.81 27.8985 16.8537 27.9424C16.8975 27.9861 16.958 28.0112 17.02 28.0112H22.9191V30.3873H16.2733C16.2115 30.3873 16.1508 30.4123 16.1071 30.4561C16.0633 30.4998 16.0383 30.5603 16.0383 30.6223V36.9545C16.0383 37.0163 16.0633 37.077 16.1071 37.1207C16.1508 37.1645 16.2113 37.1895 16.2733 37.1895H38.6469C38.7088 37.1895 38.7693 37.1645 38.8132 37.1207C38.8569 37.077 38.882 37.0163 38.882 36.9545V33.4893C39.1223 33.4515 39.3446 33.3788 39.5551 33.3124C39.8469 33.2189 40.1169 33.1381 40.3819 33.1388H40.3827C40.7425 33.1388 41.1282 33.2255 41.4854 33.3799C41.8428 33.5341 42.1714 33.7556 42.4209 34.0154C43.1235 34.746 43.4788 35.703 43.4786 36.6448C43.4786 37.2401 43.3367 37.8278 43.053 38.3473C42.7691 38.867 42.3448 39.3192 41.7714 39.6487C41.2106 39.9707 40.6089 40.1347 39.9766 40.228C39.345 40.3213 38.6846 40.3424 38.0185 40.3831C37.721 40.4014 37.4204 40.4093 37.118 40.4093C36.3048 40.4093 35.4801 40.352 34.6728 40.2879C33.1504 40.1677 31.6183 40.1481 30.1063 40.0678C30.0701 40.0172 30.0281 39.972 29.9815 39.9307C29.8317 39.8005 29.6339 39.6947 29.394 39.5914C28.9747 39.4123 28.4255 39.2499 27.8307 39.1021C26.3329 38.7305 24.5504 38.4591 24.0181 38.3814C23.9612 38.1809 23.8786 38.0088 23.7757 37.8666C23.58 37.5956 23.3184 37.4361 23.0692 37.3488C22.819 37.261 22.5783 37.2404 22.3955 37.2401C22.2034 37.2401 22.0743 37.2636 22.0639 37.2653C21.9987 37.2774 21.9423 37.3156 21.9073 37.372C21.2185 38.4732 20.9917 39.5424 20.9923 40.4565C20.9925 41.2934 21.1798 42.0005 21.3672 42.5002C21.5548 42.9999 21.7429 43.293 21.7497 43.3038C21.7806 43.3518 21.8283 43.3871 21.8833 43.4027C21.8965 43.4061 22.1448 43.4764 22.4829 43.4768C22.7363 43.4764 23.0435 43.4376 23.337 43.2851C23.4833 43.2089 23.6249 43.1038 23.7478 42.9635C23.7553 42.955 23.7621 42.945 23.7695 42.9362C23.7697 42.936 23.7698 42.9356 23.7702 42.9352C23.8579 42.8304 23.935 42.7079 23.9977 42.5669C24.3921 42.486 25.6733 42.2176 26.9599 41.88C27.7327 41.677 28.5059 41.45 29.0975 41.2197C29.3938 41.104 29.6441 40.989 29.8354 40.8663C29.9312 40.8042 30.013 40.7409 30.0807 40.6636C30.112 40.6276 30.1395 40.5875 30.1621 40.5415C31.6601 40.6191 33.161 40.6399 34.6356 40.7567C35.446 40.8208 36.2828 40.8794 37.118 40.8794C37.4285 40.8794 37.7386 40.8713 38.0473 40.8523C38.7039 40.8116 39.377 40.7912 40.0451 40.693C40.7127 40.5946 41.3774 40.4169 42.0053 40.0563C42.6541 39.684 43.1425 39.165 43.4658 38.5724C43.7893 37.9797 43.9489 37.3143 43.9489 36.6446C43.9489 35.5856 43.5501 34.5117 42.7599 33.6894C42.4607 33.3786 42.0826 33.1258 41.672 32.9484ZM17.2552 27.5411V12.9809H37.4204V27.5411H31.5212H23.1542H17.2552ZM23.3894 28.0112H31.2861V30.3873H23.3894V28.0112ZM38.4119 36.7196H16.5084V30.8578H38.4117V33.1341C38.3789 33.1752 38.3587 33.2269 38.3595 33.2836C38.3602 33.3379 38.3802 33.3869 38.4117 33.4263V36.7196H38.4119ZM22.9649 42.9337C22.806 42.9876 22.6358 43.0065 22.4831 43.0065C22.3474 43.0065 22.226 42.9918 22.1402 42.9773C22.1244 42.9746 22.1112 42.972 22.098 42.9696C22.0347 42.857 21.9165 42.6299 21.7994 42.3134C21.6296 41.8549 21.4624 41.2106 21.4624 40.4566C21.463 39.645 21.6549 38.7064 22.249 37.7164C22.289 37.7132 22.3386 37.7104 22.3955 37.7104C22.5908 37.7098 22.8632 37.7435 23.0895 37.8717C23.1367 37.8983 23.1817 37.9296 23.2249 37.9647C23.2268 37.9703 23.2275 37.976 23.2298 37.9814C23.3301 38.2301 23.4096 38.4815 23.4724 38.732C23.6211 39.3245 23.6748 39.9124 23.6748 40.448C23.6748 40.9726 23.6236 41.4448 23.5629 41.8216C23.5487 41.9094 23.5342 41.9939 23.5195 42.0706C23.4807 42.2736 23.442 42.4357 23.4134 42.5462C23.3996 42.5988 23.3883 42.6391 23.3802 42.6672C23.2596 42.7986 23.1184 42.8815 22.9649 42.9337ZM29.7267 40.3541C29.7063 40.3782 29.6618 40.4176 29.5972 40.46C29.476 40.5409 29.2871 40.635 29.056 40.7296C28.6509 40.8964 28.115 41.0695 27.5429 41.2329C26.6843 41.4783 25.7427 41.7032 25.017 41.8663C24.6541 41.9479 24.345 42.014 24.1269 42.0598C24.0779 42.0702 24.0341 42.0793 23.9947 42.0874C24.0718 41.6649 24.1448 41.0953 24.145 40.4482C24.145 39.9513 24.1016 39.408 23.9828 38.8516C24.4716 38.9232 25.842 39.1339 27.1367 39.4221C27.8477 39.5803 28.5369 39.763 29.0339 39.9532C29.2818 40.0474 29.482 40.1456 29.6038 40.2316C29.6647 40.274 29.7048 40.3134 29.7229 40.3381C29.7263 40.3426 29.7284 40.346 29.7304 40.3494C29.7291 40.3511 29.7286 40.3522 29.7267 40.3541Z" fill="#45282D"/>
<path d="M20.4079 38.7021C20.2875 38.6537 20.1504 38.7119 20.102 38.8324C19.8837 39.3751 19.817 39.9255 19.8168 40.4022C19.8173 41.2118 20.0087 41.8135 20.0128 41.828C20.0522 41.9517 20.1844 42.0203 20.308 41.9809C20.4319 41.9417 20.5003 41.8094 20.4609 41.6857C20.4586 41.6797 20.2865 41.124 20.2869 40.4022C20.2869 39.9692 20.3485 39.4782 20.538 39.0081C20.5866 38.8876 20.5284 38.7506 20.4079 38.7021Z" fill="#45282D"/>
<path d="M19.1233 37.6416C19.0028 37.5931 18.866 37.6514 18.8173 37.7718C18.4466 38.693 18.3319 39.6327 18.3318 40.4493C18.3323 41.8363 18.662 42.8732 18.6662 42.8878C18.7056 43.0114 18.8377 43.08 18.9614 43.0406C19.0852 43.0014 19.1536 42.8691 19.1142 42.7454L19.1137 42.7437C19.1052 42.717 19.0032 42.382 18.918 41.8608C18.8552 41.4759 18.8017 40.9894 18.8019 40.4493C18.8019 39.9019 18.8573 39.3008 19.0107 38.6949C19.0741 38.4453 19.1534 38.195 19.2533 37.9473C19.3022 37.8269 19.2437 37.69 19.1233 37.6416Z" fill="#45282D"/>
<path d="M18.5791 31.6655C18.3201 31.6655 18.0835 31.7713 17.914 31.9411C17.7442 32.1106 17.6385 32.3471 17.6386 32.606C17.6385 32.865 17.7442 33.1015 17.914 33.271C18.0835 33.4408 18.3201 33.5466 18.5791 33.5464C18.8381 33.5464 19.0746 33.4408 19.2441 33.271C19.4139 33.1015 19.5197 32.865 19.5195 32.606C19.5195 32.3471 19.4139 32.1104 19.2441 31.9411C19.0746 31.7713 18.8381 31.6653 18.5791 31.6655ZM18.9116 32.9383C18.8258 33.0239 18.7097 33.0759 18.5791 33.0761C18.4484 33.0761 18.3323 33.0239 18.2466 32.9383C18.1612 32.8525 18.109 32.7364 18.109 32.6058C18.109 32.4753 18.1612 32.3592 18.2467 32.2733C18.3325 32.1877 18.4486 32.1357 18.5793 32.1355C18.7099 32.1355 18.8258 32.1877 18.9118 32.2733C18.9974 32.3592 19.0494 32.4751 19.0496 32.6058C19.0492 32.7366 18.9972 32.8525 18.9116 32.9383Z" fill="#45282D"/>
<path d="M18.5791 34.3145C18.3201 34.3145 18.0835 34.42 17.914 34.5899C17.7442 34.7593 17.6385 34.9959 17.6386 35.2549C17.6385 35.5137 17.7442 35.7505 17.914 35.9197C18.0835 36.0896 18.3201 36.1953 18.5791 36.1953C18.8381 36.1953 19.0746 36.0896 19.2441 35.9197C19.4139 35.7503 19.5197 35.5137 19.5195 35.2549C19.5197 34.9959 19.4139 34.7593 19.2441 34.5899C19.0746 34.42 18.8381 34.3143 18.5791 34.3145ZM18.9116 35.5872C18.8258 35.6728 18.7097 35.7248 18.5791 35.725C18.4484 35.725 18.3325 35.6728 18.2466 35.5872C18.161 35.5013 18.109 35.3853 18.1088 35.2547C18.109 35.1241 18.161 35.0079 18.2464 34.9222C18.3321 34.8368 18.4483 34.7846 18.5789 34.7846C18.7095 34.7846 18.8256 34.8368 18.9114 34.9222C18.9968 35.0081 19.049 35.1241 19.049 35.2547C19.0492 35.3853 18.9972 35.5014 18.9116 35.5872Z" fill="#45282D"/>
<path d="M21.6094 31.6655C21.3504 31.6655 21.1139 31.7713 20.9444 31.9411C20.7746 32.1106 20.6688 32.3471 20.669 32.606C20.6688 32.865 20.7746 33.1015 20.9444 33.271C21.1139 33.4408 21.3504 33.5466 21.6094 33.5464C21.8684 33.5464 22.105 33.4408 22.2745 33.271C22.4443 33.1015 22.5501 32.865 22.5499 32.606C22.5499 32.3471 22.4443 32.1104 22.2745 31.9411C22.105 31.7713 21.8684 31.6653 21.6094 31.6655ZM21.942 32.9383C21.8562 33.0239 21.7401 33.0759 21.6094 33.0761C21.4788 33.0761 21.3627 33.0239 21.2769 32.9383C21.1915 32.8525 21.1393 32.7364 21.1391 32.6058C21.1391 32.4753 21.1913 32.3592 21.2769 32.2733C21.3627 32.1877 21.4788 32.1357 21.6094 32.1355C21.7401 32.1355 21.856 32.1877 21.942 32.2733C22.0275 32.3592 22.0796 32.4751 22.0798 32.6058C22.0796 32.7366 22.0273 32.8525 21.942 32.9383Z" fill="#45282D"/>
<path d="M21.6094 34.3145C21.3504 34.3145 21.1139 34.42 20.9444 34.5899C20.7746 34.7593 20.6688 34.9959 20.669 35.2549C20.669 35.5137 20.7746 35.7505 20.9444 35.9197C21.1139 36.0896 21.3504 36.1953 21.6094 36.1953C21.8684 36.1953 22.105 36.0896 22.2745 35.9197C22.4443 35.7503 22.5501 35.5137 22.5499 35.2549C22.5501 34.9959 22.4443 34.7593 22.2745 34.5899C22.105 34.42 21.8684 34.3143 21.6094 34.3145ZM21.942 35.5872C21.8562 35.6728 21.7401 35.7248 21.6094 35.725C21.4788 35.725 21.3629 35.6728 21.2769 35.5872C21.1913 35.5013 21.1393 35.3853 21.1391 35.2547C21.1393 35.1241 21.1913 35.0079 21.2769 34.9222C21.3627 34.8368 21.4788 34.7846 21.6094 34.7846C21.7401 34.7846 21.8562 34.8368 21.942 34.9222C22.0273 35.0081 22.0796 35.1241 22.0798 35.2547C22.0796 35.3853 22.0273 35.5014 21.942 35.5872Z" fill="#45282D"/>
<path d="M37.2782 31.6655H23.679C23.6171 31.6655 23.5564 31.6906 23.5127 31.7343C23.469 31.7781 23.4439 31.8388 23.4439 31.9006V35.631C23.4439 35.6929 23.469 35.7536 23.5127 35.7973C23.5564 35.841 23.617 35.8661 23.679 35.8661H37.2782C37.34 35.8661 37.4006 35.841 37.4445 35.7973C37.4882 35.7536 37.5133 35.693 37.5133 35.631V31.9006C37.5133 31.8388 37.4882 31.7781 37.4445 31.7343C37.4006 31.6906 37.34 31.6655 37.2782 31.6655ZM37.043 35.396H23.914V32.1357H37.043V35.396Z" fill="#45282D"/>
</svg>
