<svg width="192" height="179" viewBox="0 0 192 179" fill="none" xmlns="http://www.w3.org/2000/svg">
<path d="M191.4 -0.000228882C162.451 -0.000228882 139 23.4504 139 52.3998C139 81.3492 162.451 104.8 191.4 104.8V-0.000228882Z" fill="#5CBEDE"/>
<path d="M47 105C47 114.521 48.8753 123.948 52.5187 132.745C56.1622 141.541 61.5025 149.533 68.2348 156.265C74.967 162.997 82.9594 168.338 91.7555 171.981C100.552 175.625 109.979 177.5 119.5 177.5C129.021 177.5 138.448 175.625 147.245 171.981C156.041 168.338 164.033 162.997 170.765 156.265C177.497 149.533 182.838 141.541 186.481 132.745C190.125 123.948 192 114.521 192 105L119.5 105L47 105Z" fill="#AFD5E2"/>
<path d="M74.8 178.4C74.8 157.738 58.0623 141 37.4 141C16.7376 141 0 157.738 0 178.4H74.8Z" fill="#FFE8B3"/>
</svg>
