<svg width="192" height="179" viewBox="0 0 192 179" fill="none" xmlns="http://www.w3.org/2000/svg">
<path d="M0.600006 178.401C29.5494 178.401 53 154.95 53 126.001C53 97.0512 29.5494 73.6006 0.600006 73.6006L0.600006 178.401Z" fill="#5CBEDE"/>
<path d="M145 73.4004C145 63.8795 143.125 54.4519 139.481 45.6558C135.838 36.8597 130.497 28.8674 123.765 22.1351C117.033 15.4029 109.041 10.0626 100.245 6.41912C91.4484 2.77566 82.0208 0.90039 72.5 0.900391C62.9792 0.900391 53.5515 2.77566 44.7554 6.41913C35.9593 10.0626 27.967 15.4029 21.2348 22.1351C14.5025 28.8674 9.1622 36.8597 5.51873 45.6558C1.87527 54.4519 -8.32338e-07 63.8796 0 73.4004L72.5 73.4004L145 73.4004Z" fill="#AFD5E2"/>
<path d="M117.2 0.000419617C117.2 20.6628 133.938 37.4004 154.6 37.4004C175.262 37.4004 192 20.6628 192 0.000419617H117.2Z" fill="#FFE8B3"/>
</svg>
