<svg width="56" height="56" viewBox="0 0 56 56" fill="none" xmlns="http://www.w3.org/2000/svg">
<rect opacity="0.3" width="56" height="56" rx="28" fill="#A27FFF"/>
<g clip-path="url(#clip0_294_10587)">
<path d="M25.5 24.5H30.5V26.5L28 27.5L25.5 26.5V24.5Z" fill="white"/>
<path d="M25.5 19.5L28 19L30 19.5L31 22H25L25.5 19.5Z" fill="white"/>
<path d="M25 31H31V34L28 37L25 34V31Z" fill="white"/>
<path d="M29.4769 23.6655C29.6711 23.6655 29.8285 23.5081 29.8285 23.314V23.209C29.8285 23.0148 29.6711 22.8574 29.4769 22.8574C29.2828 22.8574 29.1254 23.0148 29.1254 23.209V23.314C29.1254 23.5082 29.2828 23.6655 29.4769 23.6655Z" fill="#A27FFF" stroke="#A27FFF" stroke-width="0.3"/>
<path d="M38.548 27.1413C38.8597 26.6816 39.042 26.1272 39.042 25.5311C39.042 23.9307 37.7287 22.6314 36.124 22.6559C34.6091 22.6789 33.3577 23.898 33.296 25.4117C33.2701 26.0501 33.4535 26.6453 33.783 27.1343C33.3932 27.3597 32.9907 27.7049 32.6383 28.32C31.9118 27.9885 31.0558 27.8082 30.3268 27.6548C30.153 27.6182 29.9852 27.5828 29.8285 27.5475V27.2509C30.6053 26.7847 31.1771 26.086 31.1771 25.4288C31.1771 25.3516 31.1704 25.2818 31.1582 25.2185C31.19 25.1461 31.2193 25.0738 31.246 25.0015C32.0101 24.9223 32.559 24.492 32.559 23.94L32.5616 23.1613C32.5616 22.7689 32.2485 22.4615 31.8487 22.4615H31.4579L31.4588 21.6254C31.4602 20.6747 31.0819 19.8726 30.3647 19.3057C29.7456 18.8162 28.914 18.5412 28.0232 18.5313C28.0205 18.5312 28.018 18.5312 28.0153 18.5313C27.1245 18.5412 26.2929 18.8162 25.6737 19.3057C24.9566 19.8726 24.5783 20.6747 24.5797 21.6248V22.4615H24.1885C23.7887 22.4615 23.4755 22.7689 23.4755 23.1625L23.4782 23.94C23.4799 24.4921 24.0286 24.9216 24.791 25.0013C24.8178 25.0738 24.8473 25.1464 24.8792 25.219C24.8669 25.2823 24.86 25.3517 24.86 25.4288C24.86 26.0859 25.4318 26.7844 26.2087 27.2506V27.5475C26.0519 27.5829 25.8842 27.6182 25.7104 27.6548C24.9715 27.8104 24.1022 27.9935 23.3694 28.3336C23.0146 27.7101 22.6091 27.3622 22.2166 27.1349C22.5465 26.6457 22.7301 26.0501 22.704 25.4113C22.6421 23.8971 21.3898 22.6781 19.8745 22.6559C18.2697 22.6322 16.9567 23.9312 16.9567 25.5311C16.9567 26.1274 17.1392 26.6819 17.4512 27.1417C16.5573 27.6929 16 28.6696 16 29.7378V31.3181C16 31.9065 16.477 32.3834 17.0653 32.3834H20.2274C20.4199 32.3834 20.5877 32.2351 20.5935 32.0427C20.5995 31.8436 20.4399 31.6803 20.2421 31.6803H17.0651C16.8652 31.6803 16.7031 31.5182 16.7031 31.3183V29.7378C16.7031 28.8757 17.1757 28.091 17.9242 27.6801C18.0647 27.8051 18.2176 27.9163 18.3807 28.0121L19.5643 30.5129C19.6225 30.6358 19.7462 30.7141 19.882 30.7141H19.8835C20.0196 30.7141 20.1433 30.6351 20.2004 30.5116L21.3882 27.9468C21.5134 27.8658 21.6321 27.7755 21.743 27.6766C22.0766 27.8453 22.4335 28.1083 22.759 28.6822C22.2604 29.0355 21.8978 29.5119 21.8051 30.1766L21.2994 33.3569C21.2965 33.375 21.295 33.3934 21.295 33.4118V35.0079C21.295 35.5193 21.7103 35.9351 22.2208 35.9351H25.0056C25.3525 35.9351 25.6712 35.8113 25.9197 35.6051L27.5697 37.2405C27.6855 37.3563 27.8391 37.464 28.0087 37.4687C28.1802 37.4734 28.3544 37.3613 28.4688 37.2405L30.0878 35.6351C30.3306 35.823 30.6348 35.9351 30.9653 35.9351H33.7488C34.2597 35.9351 34.6759 35.5193 34.6759 35.0079V33.4118C34.6759 33.4088 34.6742 33.3765 34.6724 33.3635L34.2326 30.1804C34.1392 29.5018 33.7648 29.0191 33.2516 28.6634C33.5735 28.1024 33.9264 27.8428 34.2565 27.6761C34.3675 27.7753 34.4864 27.8656 34.6119 27.9468L35.7996 30.5116C35.8568 30.6351 35.9805 30.7141 36.1165 30.7141H36.118C36.2538 30.7141 36.3776 30.6358 36.4358 30.5129L37.6196 28.0116C37.7824 27.9158 37.935 27.8047 38.0753 27.6798C38.824 28.0906 39.2969 28.8754 39.2969 29.7378V31.3181C39.2969 31.5178 39.1339 31.6803 38.9336 31.6803H35.7713C35.5788 31.6803 35.4109 31.8286 35.4052 32.021C35.3992 32.2201 35.5588 32.3834 35.7566 32.3834H38.9336C39.5216 32.3834 40 31.9055 40 31.3181V29.7378C40 28.6693 39.4424 27.6923 38.548 27.1413ZM31.4575 23.8803V23.1646H31.8487C31.853 23.1646 31.8563 23.1653 31.8585 23.166L31.8559 23.9388C31.8559 24.0392 31.6973 24.1741 31.4336 24.2511C31.4494 24.1267 31.4575 24.003 31.4575 23.8803ZM24.1813 23.9376L24.1787 23.166C24.1809 23.1653 24.1841 23.1646 24.1885 23.1646H24.5797V23.8803C24.5797 24.0028 24.5877 24.1263 24.6034 24.2505C24.3402 24.1733 24.1816 24.0382 24.1813 23.9376ZM19.8786 29.5334L19.3236 28.3608C19.4886 28.3904 19.6582 28.4067 19.8315 28.4067C20.0365 28.4067 20.2365 28.3847 20.4295 28.3437L19.8786 29.5334ZM21.9944 25.7299C21.9017 26.767 21.0668 27.6023 20.0297 27.6947C18.6766 27.8153 17.5478 26.6859 17.6687 25.3322C17.7614 24.2952 18.5963 23.4599 19.6334 23.3674C20.9865 23.2468 22.1154 24.3763 21.9944 25.7299ZM25.2828 21.6242C25.2805 20.0048 26.6989 19.2505 28.0193 19.2344C29.3396 19.2505 30.7581 20.0048 30.7557 21.6244L30.7553 21.9914C30.0873 21.5445 29.1059 21.2785 28.0255 21.2785C28.0213 21.2785 28.0172 21.2785 28.013 21.2785C26.9324 21.2785 25.9509 21.5444 25.2828 21.9909V21.6242H25.2828ZM25.4055 24.6256C25.3986 24.604 25.3923 24.5823 25.3857 24.5607C25.3179 24.3288 25.2828 24.1012 25.2828 23.8803V22.9256C25.7234 22.3565 26.8013 21.9804 28.0189 21.9817C28.021 21.9816 28.0233 21.9817 28.0255 21.9817C29.2387 21.9817 30.3145 22.3575 30.7544 22.9256V23.8803C30.7544 24.1217 30.7128 24.3711 30.6318 24.6255C30.5224 24.5765 30.4092 24.5363 30.2971 24.4942C29.3281 24.1245 28.6686 23.9727 28.0207 23.97C28.0197 23.97 28.0188 23.97 28.0178 23.97C27.369 23.9727 26.7091 24.1245 25.741 24.4939C25.6285 24.5361 25.5152 24.5765 25.4055 24.6256ZM25.5632 25.4288C25.5632 25.428 25.5632 25.4273 25.5632 25.4265C25.5634 25.3641 25.5997 25.3076 25.6556 25.2798C25.7802 25.2179 25.9907 25.1512 25.9907 25.1512C26.874 24.8142 27.4619 24.6757 28.0193 24.6732C28.5758 24.6757 29.1633 24.8143 30.0475 25.1515C30.1532 25.1912 30.2619 25.2278 30.3603 25.2837C30.4172 25.3161 30.4741 25.3575 30.4741 25.4288C30.4741 26.0327 29.2615 27.0811 28.0193 27.0908C26.7764 27.0811 25.5632 26.0327 25.5632 25.4288ZM29.1253 27.5854V27.8252C29.1253 28.1373 29.0209 28.382 28.8151 28.5523C28.626 28.7089 28.3603 28.7951 28.0672 28.7951C27.6028 28.7951 26.9118 28.5368 26.9118 27.8252V27.5851C27.2715 27.715 27.6485 27.7914 28.0169 27.7939H28.0193C28.0193 27.7939 28.0209 27.7939 28.0217 27.7939C28.3895 27.7914 28.7661 27.7151 29.1253 27.5854ZM25.8553 28.3428C25.9959 28.3132 26.1325 28.2844 26.2639 28.2555C26.479 29.0656 27.2937 29.4982 28.0673 29.4982C28.5237 29.4982 28.9485 29.3547 29.2635 29.094C29.5263 28.8765 29.7005 28.5915 29.7795 28.2568C29.909 28.2853 30.0436 28.3136 30.182 28.3427C30.282 28.3638 30.3838 28.3853 30.4866 28.4073L28.6882 30.804C28.4441 30.9204 28.2164 31.0719 28.0188 31.2493C27.821 31.0719 27.5932 30.9205 27.3491 30.8041L25.5507 28.4074C25.6534 28.3853 25.7552 28.3638 25.8553 28.3428ZM22.5001 30.2835C22.5004 30.2811 22.5008 30.2787 22.5011 30.2762C22.6335 29.3156 23.6838 28.8708 24.8023 28.5816L26.2805 30.5516C25.7863 30.5529 25.2977 30.7263 24.9002 31.1378C24.393 31.6637 24.1657 32.3715 24.2182 33.0601H22.0585L22.5001 30.2835ZM25.4158 35.1057C25.2986 35.1854 25.1575 35.2318 25.0056 35.2318H22.2208C22.098 35.2318 21.9981 35.1315 21.9981 35.0077V33.7632H25.0056C25.0577 33.7632 25.1083 33.7688 25.157 33.7792C25.4678 33.8448 25.7069 34.1082 25.7355 34.4321C25.7373 34.4537 25.7383 34.4752 25.7383 34.4973C25.7383 34.7504 25.6103 34.9735 25.4158 35.1057ZM29.5282 34.4812C29.5259 34.6933 29.5697 34.8958 29.6505 35.0781L28.0192 36.6962L26.3387 35.0307C26.4048 34.8657 26.4414 34.6857 26.4414 34.4973C26.4414 33.7046 25.7973 33.0601 25.0056 33.0601H24.9217C24.8673 32.5492 25.0291 32.0176 25.4059 31.6262C26.0055 31.0056 26.9598 31.2409 27.5547 31.7781C27.595 31.8137 27.6269 31.8446 27.6536 31.8695C27.7516 31.9623 27.8523 32.0579 28.0192 32.0579C28.1852 32.0579 28.285 31.9628 28.382 31.8709C28.4087 31.8456 28.4416 31.8146 28.4833 31.7771C29.0777 31.2409 30.032 31.0056 30.6311 31.6257C31.0084 32.0171 31.1702 32.5487 31.1158 33.0601H30.9949C30.2025 33.0601 29.5369 33.6889 29.5282 34.4812ZM33.9728 35.0077C33.9728 35.131 33.872 35.2318 33.7488 35.2318H30.9653C30.8303 35.2318 30.7042 35.1953 30.5955 35.1315C30.3789 35.0049 30.2331 34.7701 30.2313 34.502V34.4973C30.2313 34.1185 30.5186 33.8063 30.887 33.7674C30.9128 33.7646 30.9391 33.7632 30.9653 33.7632H33.9728V35.0077ZM33.5361 30.2764L33.9207 33.0601H31.8194C31.8714 32.3715 31.6441 31.6637 31.1369 31.1378C30.7395 30.7262 30.2508 30.5529 29.7567 30.5516L31.2349 28.5817C32.3534 28.8708 33.4037 29.3156 33.5361 30.2764ZM36.1214 29.5334L35.5705 28.3437C35.7635 28.3847 35.9635 28.4067 36.1685 28.4067C36.3419 28.4067 36.5114 28.3904 36.6764 28.3608L36.1214 29.5334ZM36.1684 27.7035C34.9161 27.7035 33.9079 26.6377 34.0029 25.3651C34.0822 24.3034 34.9384 23.4456 36.0001 23.365C37.2725 23.2685 38.3388 24.2775 38.3388 25.5311C38.3388 26.729 37.3652 27.7035 36.1684 27.7035Z" fill="#A27FFF" stroke="#A27FFF" stroke-width="0.3"/>
<path d="M26.5603 23.6655C26.7545 23.6655 26.9119 23.5081 26.9119 23.314V23.209C26.9119 23.0148 26.7545 22.8574 26.5603 22.8574C26.3661 22.8574 26.2087 23.0148 26.2087 23.209V23.314C26.2087 23.5082 26.3661 23.6655 26.5603 23.6655Z" fill="#A27FFF" stroke="#A27FFF" stroke-width="0.3"/>
</g>
<defs>
<clipPath id="clip0_294_10587">
<rect width="24" height="24" fill="white" transform="translate(16 16)"/>
</clipPath>
</defs>
</svg>
