<svg width="56" height="56" viewBox="0 0 56 56" fill="none" xmlns="http://www.w3.org/2000/svg">
<rect opacity="0.3" width="56" height="56" rx="28" fill="#4EB2F9"/>
<ellipse cx="26" cy="25.5" rx="4" ry="3.5" fill="white"/>
<mask id="path-3-inside-1_294_10499" fill="white">
<path d="M36.6328 18H33.1172C32.3633 18 31.75 18.6133 31.75 19.3672V24.4453C31.75 25.2803 32.3354 25.9807 33.1172 26.1588V26.7891C33.1172 27.5529 33.6071 28.2042 34.2891 28.4461V29.1287C34.2891 30.0433 34.6811 30.9163 35.3646 31.5239C35.7982 31.9093 36.0469 32.463 36.0469 33.0431V34.6016C36.0469 34.9246 35.784 35.1875 35.4609 35.1875H34.0156V34.9349C34.0156 33.096 32.7775 31.4701 31.0048 30.9811L28.3516 30.2491V29.448C29.6393 28.6573 30.5 27.2359 30.5 25.6172V21.3203C30.5 19.9203 29.361 18.7812 27.9609 18.7812H27.4089C26.8199 18.2757 26.0779 18 25.2936 18H23.2734C21.4426 18 19.9531 19.4895 19.9531 21.3203C19.9531 22.3018 20.615 23.1311 21.5156 23.3868V25.6172C21.5156 27.2359 22.3764 28.6573 23.6641 29.448V30.2491L21.0109 30.9811C19.2381 31.4701 18 33.096 18 34.9349V37.4141C18 37.7377 18.2623 38 18.5859 38H33.4297C33.7533 38 34.0156 37.7377 34.0156 37.4141V36.3594H35.4609C36.4302 36.3594 37.2188 35.5708 37.2188 34.6016V33.0431C37.2188 32.1286 36.8267 31.2556 36.1432 30.648C35.7096 30.2626 35.4609 29.7089 35.4609 29.1287V28.4461C36.1429 28.2042 36.6328 27.5529 36.6328 26.7891V26.1588C37.4146 25.9807 38 25.2803 38 24.4453V19.3672C38 18.6133 37.3867 18 36.6328 18V18ZM22.1016 22.2969C22.1015 22.2969 22.1015 22.2969 22.1015 22.2969C21.563 22.2968 21.125 21.8588 21.125 21.3203C21.125 20.1357 22.0888 19.1719 23.2734 19.1719H25.2936C25.8496 19.1719 26.3722 19.3884 26.7654 19.7815C26.8753 19.8914 27.0243 19.9531 27.1797 19.9531H27.9609C28.7148 19.9531 29.3281 20.5664 29.3281 21.3203V22.2839C28.5254 22.2168 27.7795 21.8727 27.2034 21.2966C27.0133 21.1065 26.7182 21.0702 26.4876 21.2085C25.3009 21.9205 23.9421 22.2969 22.5582 22.2969H22.1016ZM22.6875 25.6172V23.4678C24.0929 23.4471 25.4724 23.0902 26.7096 22.4293C27.4536 23.0416 28.3623 23.3999 29.3281 23.4598V25.6172C29.3281 27.448 27.8386 28.9375 26.0078 28.9375C24.177 28.9375 22.6875 27.448 22.6875 25.6172ZM27.1797 29.954V31.2812C27.1797 31.9274 26.654 32.4531 26.0078 32.4531C25.3616 32.4531 24.8359 31.9274 24.8359 31.2812V29.954C25.2097 30.0551 25.6025 30.1094 26.0078 30.1094C26.4131 30.1094 26.8059 30.0551 27.1797 29.954ZM32.8438 36.8281H31.2812V35.3828C31.2812 35.0592 31.0189 34.7969 30.6953 34.7969C30.3717 34.7969 30.1094 35.0592 30.1094 35.3828V36.8281H21.9062V35.3828C21.9062 35.0592 21.6439 34.7969 21.3203 34.7969C20.9967 34.7969 20.7344 35.0592 20.7344 35.3828V36.8281H19.1719V34.9349C19.1719 33.6214 20.0563 32.46 21.3225 32.1107L23.6718 31.4627C23.7648 32.6705 24.7766 33.625 26.0078 33.625C27.2391 33.625 28.2509 32.6705 28.3439 31.4627L30.6932 32.1107C31.9594 32.46 32.8438 33.6214 32.8438 34.9349V36.8281ZM35.4609 26.7891C35.4609 27.1121 35.1981 27.375 34.875 27.375C34.5519 27.375 34.2891 27.1121 34.2891 26.7891V26.2031H35.4609V26.7891ZM36.8281 24.4453C36.8281 24.7684 36.5653 25.0312 36.2422 25.0312H33.5078C33.1847 25.0312 32.9219 24.7684 32.9219 24.4453V21.9062H36.8281V24.4453ZM36.8281 20.7344H32.9219V19.3672C32.9219 19.2595 33.0095 19.1719 33.1172 19.1719H36.6328C36.7405 19.1719 36.8281 19.2595 36.8281 19.3672V20.7344Z"/>
</mask>
<path d="M36.6328 18H33.1172C32.3633 18 31.75 18.6133 31.75 19.3672V24.4453C31.75 25.2803 32.3354 25.9807 33.1172 26.1588V26.7891C33.1172 27.5529 33.6071 28.2042 34.2891 28.4461V29.1287C34.2891 30.0433 34.6811 30.9163 35.3646 31.5239C35.7982 31.9093 36.0469 32.463 36.0469 33.0431V34.6016C36.0469 34.9246 35.784 35.1875 35.4609 35.1875H34.0156V34.9349C34.0156 33.096 32.7775 31.4701 31.0048 30.9811L28.3516 30.2491V29.448C29.6393 28.6573 30.5 27.2359 30.5 25.6172V21.3203C30.5 19.9203 29.361 18.7812 27.9609 18.7812H27.4089C26.8199 18.2757 26.0779 18 25.2936 18H23.2734C21.4426 18 19.9531 19.4895 19.9531 21.3203C19.9531 22.3018 20.615 23.1311 21.5156 23.3868V25.6172C21.5156 27.2359 22.3764 28.6573 23.6641 29.448V30.2491L21.0109 30.9811C19.2381 31.4701 18 33.096 18 34.9349V37.4141C18 37.7377 18.2623 38 18.5859 38H33.4297C33.7533 38 34.0156 37.7377 34.0156 37.4141V36.3594H35.4609C36.4302 36.3594 37.2188 35.5708 37.2188 34.6016V33.0431C37.2188 32.1286 36.8267 31.2556 36.1432 30.648C35.7096 30.2626 35.4609 29.7089 35.4609 29.1287V28.4461C36.1429 28.2042 36.6328 27.5529 36.6328 26.7891V26.1588C37.4146 25.9807 38 25.2803 38 24.4453V19.3672C38 18.6133 37.3867 18 36.6328 18V18ZM22.1016 22.2969C22.1015 22.2969 22.1015 22.2969 22.1015 22.2969C21.563 22.2968 21.125 21.8588 21.125 21.3203C21.125 20.1357 22.0888 19.1719 23.2734 19.1719H25.2936C25.8496 19.1719 26.3722 19.3884 26.7654 19.7815C26.8753 19.8914 27.0243 19.9531 27.1797 19.9531H27.9609C28.7148 19.9531 29.3281 20.5664 29.3281 21.3203V22.2839C28.5254 22.2168 27.7795 21.8727 27.2034 21.2966C27.0133 21.1065 26.7182 21.0702 26.4876 21.2085C25.3009 21.9205 23.9421 22.2969 22.5582 22.2969H22.1016ZM22.6875 25.6172V23.4678C24.0929 23.4471 25.4724 23.0902 26.7096 22.4293C27.4536 23.0416 28.3623 23.3999 29.3281 23.4598V25.6172C29.3281 27.448 27.8386 28.9375 26.0078 28.9375C24.177 28.9375 22.6875 27.448 22.6875 25.6172ZM27.1797 29.954V31.2812C27.1797 31.9274 26.654 32.4531 26.0078 32.4531C25.3616 32.4531 24.8359 31.9274 24.8359 31.2812V29.954C25.2097 30.0551 25.6025 30.1094 26.0078 30.1094C26.4131 30.1094 26.8059 30.0551 27.1797 29.954ZM32.8438 36.8281H31.2812V35.3828C31.2812 35.0592 31.0189 34.7969 30.6953 34.7969C30.3717 34.7969 30.1094 35.0592 30.1094 35.3828V36.8281H21.9062V35.3828C21.9062 35.0592 21.6439 34.7969 21.3203 34.7969C20.9967 34.7969 20.7344 35.0592 20.7344 35.3828V36.8281H19.1719V34.9349C19.1719 33.6214 20.0563 32.46 21.3225 32.1107L23.6718 31.4627C23.7648 32.6705 24.7766 33.625 26.0078 33.625C27.2391 33.625 28.2509 32.6705 28.3439 31.4627L30.6932 32.1107C31.9594 32.46 32.8438 33.6214 32.8438 34.9349V36.8281ZM35.4609 26.7891C35.4609 27.1121 35.1981 27.375 34.875 27.375C34.5519 27.375 34.2891 27.1121 34.2891 26.7891V26.2031H35.4609V26.7891ZM36.8281 24.4453C36.8281 24.7684 36.5653 25.0312 36.2422 25.0312H33.5078C33.1847 25.0312 32.9219 24.7684 32.9219 24.4453V21.9062H36.8281V24.4453ZM36.8281 20.7344H32.9219V19.3672C32.9219 19.2595 33.0095 19.1719 33.1172 19.1719H36.6328C36.7405 19.1719 36.8281 19.2595 36.8281 19.3672V20.7344Z" fill="#4EB2F9" stroke="#4EB2F9" stroke-width="2" mask="url(#path-3-inside-1_294_10499)"/>
</svg>
