<svg width="56" height="56" viewBox="0 0 56 56" fill="none" xmlns="http://www.w3.org/2000/svg">
<rect opacity="0.3" width="56" height="56" rx="28" fill="#1EBCB4"/>
<path d="M36.2457 20H19.7543C18.787 20 18 20.787 18 21.7543V32.7383C18 33.7056 18.787 34.4926 19.7543 34.4926H24.9005L23.4798 36.1867C23.3823 36.303 23.361 36.4653 23.4252 36.6029C23.4893 36.7404 23.6274 36.8283 23.7792 36.8283H32.2208C32.3726 36.8283 32.5107 36.7404 32.5748 36.6029C32.639 36.4653 32.6177 36.303 32.5202 36.1867L31.0995 34.4926H36.2457C37.213 34.4926 38 33.7056 38 32.7383V21.7543C38 20.787 37.213 20 36.2457 20ZM31.3834 36.0471H24.6166L25.9202 34.4927H30.0799L31.3834 36.0471ZM37.2188 32.7383C37.2188 33.2748 36.7822 33.7114 36.2457 33.7114H19.7543C19.2178 33.7114 18.7812 33.2748 18.7812 32.7383V21.7543C18.7812 21.2178 19.2178 20.7813 19.7543 20.7813H36.2457C36.7822 20.7813 37.2188 21.2178 37.2188 21.7543V32.7383Z" fill="#1EBCB4" stroke="#1EBCB4" stroke-width="0.2"/>
<rect x="20" y="22" width="16" height="8" fill="white"/>
<path d="M35.8858 21.7241H20.1144C19.8986 21.7241 19.7238 21.899 19.7238 22.1147V30.4193C19.7238 30.635 19.8986 30.8099 20.1144 30.8099H35.8858C36.1015 30.8099 36.2764 30.635 36.2764 30.4193V22.1147C36.2764 21.899 36.1015 21.7241 35.8858 21.7241ZM35.4952 30.0287H20.505V22.5054H35.4952V30.0287Z" fill="#1EBCB4" stroke="#1EBCB4" stroke-width="0.2"/>
<path d="M24.0324 28.6756C24.0971 28.7177 24.1712 28.7387 24.2452 28.7387C24.3192 28.7387 24.3933 28.7177 24.458 28.6756C24.7528 28.4842 26.2414 27.4987 26.5926 26.9019C26.7377 26.6554 26.9275 26.2647 26.9014 25.719C26.8572 24.7959 26.172 24.0728 25.3415 24.0728C24.8799 24.0728 24.4928 24.2818 24.2456 24.4612C24.0007 24.2813 23.6153 24.0728 23.1448 24.0728C22.3143 24.0728 21.6291 24.7959 21.5848 25.719C21.5587 26.2658 21.7487 26.6562 21.8938 26.9022C22.243 27.4943 23.7365 28.4833 24.0324 28.6756ZM22.3653 25.7564C22.3891 25.2588 22.7388 24.854 23.1448 24.854C23.5983 24.854 23.9493 25.2331 23.9512 25.2351C24.024 25.3171 24.1272 25.3653 24.2368 25.3669C24.3471 25.3687 24.4509 25.3247 24.5261 25.245C24.5298 25.2411 24.9073 24.854 25.3415 24.854C25.7475 24.854 26.0972 25.2588 26.121 25.7563C26.1337 26.0199 26.0733 26.244 25.9194 26.5056C25.7487 26.7956 24.9009 27.4369 24.2452 27.8794C23.5871 27.4354 22.7365 26.793 22.5668 26.5053C22.4129 26.2445 22.3526 26.0205 22.3653 25.7564Z" fill="#1EBCB4" stroke="#1EBCB4" stroke-width="0.2"/>
<path d="M28.0074 26.3994H29.1286L29.5347 27.0079C29.6157 27.1291 29.7572 27.1951 29.9023 27.1793C30.0472 27.1633 30.1712 27.068 30.2238 26.9321L30.4851 26.2579L30.9598 27.8773C31.0067 28.0375 31.1503 28.1501 31.3171 28.1576C31.323 28.1579 31.3288 28.158 31.3347 28.158C31.4946 28.158 31.6392 28.0603 31.6981 27.9104L32.3113 26.3522C32.384 26.4292 32.4863 26.4747 32.5954 26.4747H34.0272C34.2429 26.4747 34.4178 26.2998 34.4178 26.0841C34.4178 25.8684 34.2429 25.6935 34.0272 25.6935H32.8373L32.611 25.2386C32.5422 25.1004 32.3987 25.0158 32.2443 25.0223C32.0901 25.0291 31.9543 25.1259 31.8977 25.2696L31.3887 26.5632L30.9113 24.9346C30.8642 24.774 30.7202 24.6612 30.553 24.6542C30.3863 24.6469 30.2327 24.7473 30.1722 24.9033L29.7671 25.9488L29.6623 25.7919C29.5898 25.6833 29.4679 25.6181 29.3374 25.6181H28.0073C27.7916 25.6181 27.6167 25.793 27.6167 26.0088C27.6167 26.2245 27.7916 26.3994 28.0074 26.3994Z" fill="#1EBCB4" stroke="#1EBCB4" stroke-width="0.2"/>
<path d="M28.5937 31.6455H27.4067C27.191 31.6455 27.0161 31.8204 27.0161 32.0361C27.0161 32.2519 27.191 32.4268 27.4067 32.4268H28.5937C28.8095 32.4268 28.9844 32.2519 28.9844 32.0361C28.9844 31.8204 28.8095 31.6455 28.5937 31.6455Z" fill="#1EBCB4" stroke="#1EBCB4" stroke-width="0.2"/>
</svg>
