<svg width="56" height="56" viewBox="0 0 56 56" fill="none" xmlns="http://www.w3.org/2000/svg">
<rect opacity="0.3" width="56" height="56" rx="28" fill="#FFB201"/>
<path d="M32.1596 35.829C34.0596 37.7219 36.0091 39.4171 37.6478 40.6886L34.095 45.2939C33.4804 44.8136 31.0153 42.8711 28.2112 40.1094L24.2769 35.829C20.9995 31.8876 18.1953 27.2328 18.1953 22.8676C18.1953 14.3987 23.5917 11.3896 28.2112 11.3896C32.8377 11.3896 38.2341 14.3987 38.2341 22.8676C38.2341 27.2328 35.4229 31.8876 32.1596 35.829Z" fill="white"/>
<path d="M34.0952 46C33.9386 46 33.7851 45.9479 33.6603 45.8503C32.5287 44.9664 30.2517 43.1105 27.7157 40.6125L23.7567 36.3068C19.5901 31.2969 17.489 26.784 17.489 22.8674C17.489 13.874 23.2649 10.6831 28.2113 10.6831C33.1609 10.6831 38.9406 13.874 38.9406 22.8674C38.9406 26.6374 36.9809 30.9786 33.1136 35.7774C34.7291 37.3536 36.4749 38.8845 38.0808 40.1303C38.3884 40.369 38.445 40.8115 38.2073 41.1198L34.6546 45.7251C34.5394 45.8741 34.3701 45.971 34.1835 45.9945C34.1542 45.9983 34.1245 46 34.0952 46ZM28.2113 12.0958C23.9168 12.0958 18.9017 14.917 18.9017 22.8674C18.9017 26.4453 20.8927 30.6541 24.82 35.3773L28.7314 39.6312C30.8315 41.6989 32.7632 43.3254 33.9728 44.2959L36.6615 40.8104C35.0143 39.4933 33.2595 37.922 31.661 36.3292C31.4026 36.0716 31.383 35.6595 31.6158 35.3784C35.5386 30.6403 37.5279 26.4309 37.5279 22.8674C37.5279 14.917 32.509 12.0958 28.2113 12.0958Z" fill="#FFB201"/>
<path d="M28.2112 40.1094L24.2769 35.829C20.9995 31.8876 18.1953 27.2328 18.1953 22.8676C18.1953 14.3987 23.5917 11.3896 28.2112 11.3896C32.8377 11.3896 38.2341 14.3987 38.2341 22.8676C38.2341 27.2328 35.4229 31.8876 32.1596 35.829" fill="white"/>
<path d="M28.2117 40.8156C28.0206 40.8156 27.8306 40.7387 27.6912 40.5873L23.7567 36.3068C19.5901 31.2969 17.489 26.784 17.489 22.8674C17.489 13.874 23.2649 10.6831 28.2113 10.6831C33.1609 10.6831 38.9406 13.874 38.9406 22.8674C38.9406 26.7685 36.8423 31.2811 32.7036 36.2792C32.4549 36.58 32.0096 36.6217 31.7092 36.3727C31.4088 36.124 31.3668 35.6788 31.6158 35.3784C35.5386 30.6403 37.5279 26.4309 37.5279 22.8674C37.5279 14.917 32.509 12.0958 28.2113 12.0958C23.9168 12.0958 18.9017 14.917 18.9017 22.8674C18.9017 26.4453 20.8927 30.6541 24.82 35.3773L28.7314 39.6312C28.9953 39.9185 28.9767 40.3652 28.6894 40.6294C28.5538 40.7539 28.3824 40.8156 28.2117 40.8156Z" fill="#FFB201"/>
<path d="M28.2142 31.459C27.0147 32.9565 25.6554 34.4467 24.2742 35.8279C22.3696 37.7252 20.4287 39.4189 18.7786 40.691L22.3405 45.2925C22.9584 44.8128 25.4155 42.8719 28.2142 40.1095C29.5081 38.8446 30.8675 37.3908 32.1614 35.8279" fill="white"/>
<path d="M22.3409 45.9988C22.3115 45.9988 22.2819 45.997 22.2522 45.9932C22.0663 45.9698 21.897 45.8732 21.7825 45.7249L18.2204 41.1234C18.1056 40.9751 18.0542 40.7871 18.0783 40.6009C18.1021 40.415 18.1991 40.246 18.3474 40.1315C20.076 38.7988 22.0039 37.0926 23.776 35.3271C25.2245 33.8789 26.5327 32.4283 27.6632 31.0174C27.9071 30.7128 28.3516 30.6635 28.6558 30.9077C28.9604 31.1515 29.0097 31.5961 28.7655 31.9003C27.6029 33.3519 26.2599 34.8412 24.7737 36.327C23.1476 37.9469 21.3914 39.5196 19.7669 40.8137L22.4626 44.2957C23.5021 43.461 25.5132 41.7828 27.7181 39.6065C29.1035 38.2525 30.4148 36.8302 31.6174 35.3771C31.8661 35.0767 32.312 35.035 32.6121 35.2833C32.9125 35.5323 32.9546 35.9776 32.7059 36.278C31.4712 37.769 30.1264 39.2278 28.7083 40.6143C25.9412 43.3452 23.4666 45.3124 22.774 45.8501C22.6495 45.947 22.4971 45.9988 22.3409 45.9988Z" fill="#FFB201"/>
<path d="M28.2143 31.4583C25.7863 28.4197 24.0126 25.3157 24.0126 22.8659C24.0126 18.1845 26.2951 17.2031 28.2143 17.2031C30.1334 17.2031 32.4159 18.1845 32.4159 22.8659C32.4159 25.3012 30.6422 28.4125 28.2143 31.4583Z" fill="#FFE8B3"/>
<path d="M28.2141 32.1648C27.9992 32.1648 27.7964 32.0672 27.6623 31.8992C24.7717 28.2824 23.3063 25.2432 23.3063 22.8662C23.3063 17.3245 26.3813 16.4971 28.2141 16.4971C30.0472 16.4971 33.1222 17.3245 33.1222 22.8662C33.1222 25.2342 31.6568 28.273 28.7663 31.8989C28.6324 32.0669 28.4293 32.1648 28.2144 32.1648H28.2141ZM28.2141 17.9097C25.895 17.9097 24.719 19.5773 24.719 22.8662C24.719 24.7403 25.9243 27.3025 28.2134 30.3096C30.5038 27.2953 31.7096 24.7327 31.7096 22.8662C31.7096 19.5773 30.5335 17.9097 28.2141 17.9097Z" fill="#FFB201"/>
</svg>
