<svg width="56" height="56" viewBox="0 0 56 56" fill="none" xmlns="http://www.w3.org/2000/svg">
<rect width="56" height="56" rx="16" fill="#FFE8B3"/>
<path d="M29.8578 11.6673C27.1442 11.6304 24.7901 13.8606 24.8541 16.5736C24.8756 17.4807 25.1502 18.3241 25.6092 19.0382C26.0917 19.7886 26.1025 20.7233 25.6176 21.4722C25.1341 22.2189 24.8528 23.1083 24.8528 24.0645C24.8528 25.0207 25.134 25.9099 25.6174 26.6566C26.1028 27.4063 26.0905 28.3415 25.6079 29.093C25.1528 29.8016 24.8794 30.6374 24.8546 31.5364C24.7773 34.3431 27.2279 36.5385 30.0345 36.4576C37.8208 36.233 40.1822 29.2732 40.1822 24.0645C40.1822 18.8135 38.3318 11.7827 29.8578 11.6673Z" fill="white"/>
<path d="M29.8859 37.1263C28.3442 37.1263 26.8522 36.5145 25.7693 35.4329C24.7095 34.3744 24.1479 32.984 24.1886 31.5181C24.2156 30.5282 24.5127 29.5651 25.0473 28.7327C25.3915 28.1968 25.3954 27.5401 25.058 27.0189C24.4876 26.138 24.1863 25.1166 24.1863 24.0646C24.1863 23.0126 24.4879 21.9912 25.0583 21.11C25.3958 20.5887 25.3922 19.9327 25.0486 19.3988C24.5091 18.5596 24.2113 17.5883 24.1879 16.5893C24.1534 15.14 24.7147 13.7561 25.7683 12.6921C26.8526 11.5968 28.35 10.9717 29.8667 11.001C39.7782 11.1357 40.8484 20.1817 40.8484 24.0646C40.8484 29.9451 38.0214 36.8939 30.0538 37.1237C29.9978 37.1253 29.9415 37.1263 29.8859 37.1263ZM29.7919 12.3335C28.6513 12.3335 27.533 12.804 26.7152 13.6298C25.919 14.4339 25.4947 15.4739 25.5201 16.5581C25.538 17.3117 25.7628 18.0448 26.1699 18.6777C26.8002 19.6581 26.8031 20.8676 26.177 21.8343C25.7465 22.4991 25.5191 23.2703 25.5191 24.0646C25.5191 24.8589 25.7465 25.6301 26.1767 26.2945C26.8025 27.2606 26.7995 28.4711 26.1686 29.4531C25.7654 30.0808 25.5412 30.8078 25.5207 31.5545C25.4905 32.6508 25.9135 33.693 26.7113 34.4899C27.5753 35.3525 28.7776 35.8273 30.0154 35.7915C39.0575 35.5309 39.5156 25.9769 39.5156 24.0646C39.5156 19.7326 38.2596 12.448 29.8485 12.3338C29.8296 12.3335 29.8107 12.3335 29.7919 12.3335Z" fill="#FFB201"/>
<path d="M16.6664 44.3207C16.2984 44.3207 16 44.0224 16 43.6543V31.2832C16 25.427 20.7644 20.6626 26.6206 20.6626H29.0379C29.4059 20.6626 29.7043 20.961 29.7043 21.329C29.7043 21.697 29.4059 21.9954 29.0379 21.9954H26.6206C21.4992 21.9954 17.3328 26.1618 17.3328 31.2832V43.6543C17.3328 44.0224 17.0344 44.3207 16.6664 44.3207Z" fill="#FFB201"/>
<path d="M21.0756 44.3208C20.7076 44.3208 20.4092 44.0224 20.4092 43.6544V31.9229C20.4092 28.4581 23.2277 25.6396 26.6925 25.6396H29.0386C29.4067 25.6396 29.7051 25.9379 29.7051 26.306C29.7051 26.674 29.4067 26.9724 29.0386 26.9724H26.6925C23.9628 26.9724 21.742 29.1932 21.742 31.9229V43.6544C21.742 44.0224 21.4436 44.3208 21.0756 44.3208Z" fill="#FFB201"/>
</svg>
